<svg width="50" height="54" viewBox="0 0 50 54" fill="none" xmlns="http://www.w3.org/2000/svg">
<path opacity="0.9" d="M49.1531 34.6672L49.1183 34.5976C48.9327 34.1104 48.7239 33.6232 48.4919 33.1709L37.9466 8.99782C35.8005 3.9753 30.8237 0.4375 25 0.4375C19.1763 0.4375 13.8979 4.20729 11.8794 9.49659L0.986079 34.3656C0.359629 35.9547 0 37.683 0 39.5041C0 47.2757 6.2993 53.5625 14.0603 53.5625C18.4803 53.5625 22.4246 51.521 25 48.3312C27.5754 51.521 31.5197 53.5625 35.9397 53.5625C43.7123 53.5625 50 47.2641 50 39.5041C50 37.799 49.6868 36.1751 49.1299 34.6672H49.1531ZM28.8747 34.7716H19.8144C19.0951 34.7716 18.5963 34.0408 18.8631 33.368L23.3875 22.0471C23.7239 21.1887 24.942 21.1887 25.2784 22.0471L29.8028 33.368C30.0696 34.0408 29.5824 34.7716 28.8515 34.7716H28.8747Z" fill="#E1E2E5"/>
</svg>
