<svg width="32" height="32" viewBox="0 0 32 32" fill="none" xmlns="http://www.w3.org/2000/svg">
<circle cx="16" cy="16" r="12" fill="#D9D9D9"/>
<rect width="16" height="16" transform="translate(8 8)" fill="white" fill-opacity="0.01"/>
<path d="M15.9993 17.4386L19.596 21.0353C19.9933 21.4326 20.6374 21.4326 21.0347 21.0353L-nan -nanCnan nan nan nan nan nanLnan nanCnan nan nan nan -nan -nanL21.0347 21.0353C21.432 20.6381 21.432 19.9939 21.0347 19.5967L17.438 16L21.0347 12.4033C21.432 12.006 21.432 11.3619 21.0347 10.9646L-nan -nanCnan nan nan nan nan nanLnan nanCnan nan nan nan -nan -nanL21.0347 10.9646C20.6374 10.5673 19.9933 10.5673 19.596 10.9646L15.9993 14.5613L12.4027 10.9646C12.0054 10.5673 11.3613 10.5673 10.964 10.9646L-nan -nanCnan nan nan nan nan nanLnan nanCnan nan nan nan -nan -nanL10.964 10.9646C10.5667 11.3619 10.5667 12.006 10.964 12.4033L14.5607 16L10.964 19.5967C10.5667 19.9939 10.5667 20.6381 10.964 21.0353L-nan -nanCnan nan nan nan nan nanLnan nanCnan nan nan nan -nan -nanL10.964 21.0353C11.3613 21.4326 12.0054 21.4326 12.4027 21.0353L15.9993 17.4386Z" fill="#090A0B"/>
</svg>
