<svg width="36" height="36" viewBox="0 0 36 36" fill="none" xmlns="http://www.w3.org/2000/svg">
<rect width="16" height="16" transform="translate(10 10)" fill="white" fill-opacity="0.01"/>
<path d="M17.9993 19.4387L21.596 23.0354C21.9933 23.4327 22.6374 23.4327 23.0347 23.0354L-nan -nanCnan nan nan nan nan nanLnan nanCnan nan nan nan -nan -nanL23.0347 23.0354C23.432 22.6381 23.432 21.994 23.0347 21.5967L19.438 18L23.0347 14.4033C23.432 14.006 23.432 13.3619 23.0347 12.9646L-nan -nanCnan nan nan nan nan nanLnan nanCnan nan nan nan -nan -nanL23.0347 12.9646C22.6374 12.5674 21.9933 12.5674 21.596 12.9646L17.9993 16.5613L14.4027 12.9646C14.0054 12.5674 13.3613 12.5674 12.964 12.9646L-nan -nanCnan nan nan nan nan nanLnan nanCnan nan nan nan -nan -nanL12.964 12.9646C12.5667 13.3619 12.5667 14.006 12.964 14.4033L16.5607 18L12.964 21.5967C12.5667 21.994 12.5667 22.6381 12.964 23.0354L-nan -nanCnan nan nan nan nan nanLnan nanCnan nan nan nan -nan -nanL12.964 23.0354C13.3613 23.4327 14.0054 23.4327 14.4027 23.0354L17.9993 19.4387Z" fill="#090A0B"/>
</svg>
